<?xml version="1.0" encoding="utf-8"?>
<!-- Generator: Adobe Illustrator 16.0.0, SVG Export Plug-In . SVG Version: 6.00 Build 0)  -->
<!DOCTYPE svg PUBLIC "-//W3C//DTD SVG 1.1//EN" "http://www.w3.org/Graphics/SVG/1.1/DTD/svg11.dtd">
<svg version="1.1" id="Layer_1" xmlns="http://www.w3.org/2000/svg" xmlns:xlink="http://www.w3.org/1999/xlink" x="0px" y="0px"
	 width="231.333px" height="263px" viewBox="0 0 231.333 263" enable-background="new 0 0 231.333 263" xml:space="preserve">
<path id="cat_3_" d="M30.696,131.986c9.746,18.167,28.961,29.9,63.145,33.585c-4.852,3.261-9.801,8.802-11.807,18.181
	c-6.612,3.162-27.542,10.881-40.099-10.717c0,0-7.029-12.852-20.483-13.858c0,0-13.052-0.199-0.901,8.134
	c0,0,8.733,4.115,14.758,19.58c0,0,7.86,26.377,45.792,17.914v27.246c0,0-0.802,9.637-9.637,12.849c0,0-5.221,3.614,0.404,5.618
	c0,0,24.49,2.008,24.49-18.064v-29.71c0,0-0.972-11.783,4.816-15.878v48.799c0,0-0.399,11.643-6.422,16.061
	c0,0-4.018,7.225,4.817,5.22c0,0,16.862-2.409,17.666-22.082l0.382-49.386h4.053l0.386,49.386
	c0.802,19.673,17.665,22.082,17.665,22.082c8.832,2.005,4.817-5.22,4.817-5.22c-6.022-4.418-6.424-16.061-6.424-16.061v-48.378
	c5.785,4.505,4.817,15.456,4.817,15.456v29.71c0,20.073,24.491,18.064,24.491,18.064c5.619-2.004,0.403-5.618,0.403-5.618
	c-8.835-3.211-9.638-12.849-9.638-12.849v-38.944c0-15.187-6.396-23.229-12.648-27.475c36.455-3.615,53.95-15.387,62.011-33.676
	l2.882-8.162c2.703-9.74,3.516-20.948,3.516-33.445c0-17.924-6.733-32.264-17.666-43.175c1.91-6.167,4.462-19.862-2.548-37.395
	c0,0-12.368-3.927-40.345,14.797c-10.959-2.739-22.622-4.091-34.303-4.091c-12.852,0-25.838,1.637-37.949,4.959
	C52.268,5.748,39.523,9.782,39.523,9.782c-8.319,20.803-3.175,36.207-1.613,40.031c-9.777,10.553-15.747,24.023-15.747,40.539
	c0,12.468,1.42,23.653,4.887,33.375"/>
<path id="cat_2_" d="M27.503,124.95c0.764,2.013,1.615,3.965,2.57,5.852"/>
<g>
	<path fill="#FFFFFF" d="M167.384,78.405h-64.595c-2.942,0-5.327-2.385-5.327-5.327s2.385-5.327,5.327-5.327h64.595
		c2.942,0,5.327,2.385,5.327,5.327S170.326,78.405,167.384,78.405z"/>
</g>
<g>
	<path fill="#FFFFFF" d="M167.384,99.712h-64.595c-2.942,0-5.327-2.385-5.327-5.327s2.385-5.327,5.327-5.327h64.595
		c2.942,0,5.327,2.385,5.327,5.327S170.326,99.712,167.384,99.712z"/>
</g>
<g>
	<path fill="#FFFFFF" d="M167.384,121.018h-64.595c-2.942,0-5.327-2.385-5.327-5.327c0-2.941,2.385-5.327,5.327-5.327h64.595
		c2.942,0,5.327,2.385,5.327,5.327C172.711,118.633,170.326,121.018,167.384,121.018z"/>
</g>
<circle fill="#FFFFFF" cx="83.131" cy="73.161" r="5.563"/>
<circle fill="#FFFFFF" cx="83.131" cy="94.385" r="5.563"/>
<circle fill="#FFFFFF" cx="83.131" cy="115.691" r="5.563"/>
</svg>
